<svg width="24" height="24" viewBox="0 0 24 24" fill="none" xmlns="http://www.w3.org/2000/svg">
<path d="M16.0439 7.2936C16.0439 9.99625 14.3276 11.9697 12.2104 11.9697C10.0931 11.9697 8.37679 9.99625 8.37679 7.2936C8.37679 4.59095 10.0931 2.40002 12.2104 2.40002C14.3276 2.40002 16.0439 4.59095 16.0439 7.2936Z" stroke="#B2B2B2" stroke-width="2" stroke-linejoin="round"/>
<path d="M4.39864 15.8845C4.67344 15.3834 5.17779 15.0753 5.72318 15.0753H18.2737C18.8191 15.0753 19.3234 15.3834 19.5982 15.8845L21.3872 19.1469C21.9836 20.2344 21.2462 21.6 20.0627 21.6H3.93418C2.75069 21.6 2.01331 20.2344 2.60963 19.1469L4.39864 15.8845Z" stroke="#B2B2B2" stroke-width="2" stroke-linejoin="round"/>
</svg>
