<svg width="131" height="21" viewBox="0 0 131 21" fill="none" xmlns="http://www.w3.org/2000/svg">
<g id="Kasana.UZ">
<g id="Vector">
<path d="M130.201 8.14269C129.865 8.51602 129.408 9.02002 128.829 9.65469C128.269 10.2894 127.662 10.9894 127.009 11.7547C126.356 12.52 125.693 13.3227 125.021 14.1627C124.368 15.0027 123.77 15.8147 123.229 16.5987H130.341V20.0707H118.161V17.6067C118.553 16.9347 119.02 16.216 119.561 15.4507C120.121 14.6667 120.7 13.8827 121.297 13.0987C121.913 12.3147 122.52 11.5587 123.117 10.8307C123.714 10.084 124.265 9.41202 124.769 8.81469H118.497V5.34269H130.201V8.14269Z" fill="#41A58D"/>
<path d="M115.225 19.5667C114.515 19.772 113.601 19.9587 112.481 20.1267C111.361 20.3134 110.185 20.4067 108.953 20.4067C107.702 20.4067 106.657 20.2387 105.817 19.9027C104.995 19.5667 104.342 19.1 103.857 18.5027C103.371 17.8867 103.026 17.1587 102.821 16.3187C102.615 15.4787 102.513 14.5547 102.513 13.5467V5.34269H106.685V13.0427C106.685 14.3867 106.862 15.3574 107.217 15.9547C107.571 16.552 108.234 16.8507 109.205 16.8507C109.503 16.8507 109.821 16.8414 110.157 16.8227C110.493 16.7854 110.791 16.748 111.053 16.7107V5.34269H115.225V19.5667Z" fill="#41A58D"/>
<path d="M99.85 17.8587C99.85 18.6987 99.5793 19.3427 99.038 19.7907C98.5153 20.22 97.918 20.4347 97.246 20.4347C96.574 20.4347 95.9673 20.22 95.426 19.7907C94.9033 19.3427 94.642 18.6987 94.642 17.8587C94.642 17.0187 94.9033 16.384 95.426 15.9547C95.9673 15.5067 96.574 15.2827 97.246 15.2827C97.918 15.2827 98.5153 15.5067 99.038 15.9547C99.5793 16.384 99.85 17.0187 99.85 17.8587Z" fill="#41A58D"/>
<path d="M85.9134 17.1587C86.3241 17.1587 86.7161 17.1494 87.0894 17.1307C87.4628 17.112 87.7614 17.084 87.9854 17.0467V13.8827C87.8174 13.8454 87.5654 13.808 87.2294 13.7707C86.8934 13.7334 86.5854 13.7147 86.3054 13.7147C85.9134 13.7147 85.5401 13.7427 85.1854 13.7987C84.8494 13.836 84.5508 13.92 84.2894 14.0507C84.0281 14.1814 83.8228 14.3587 83.6734 14.5827C83.5241 14.8067 83.4494 15.0867 83.4494 15.4227C83.4494 16.076 83.6641 16.5334 84.0934 16.7947C84.5414 17.0374 85.1481 17.1587 85.9134 17.1587ZM85.5774 4.95069C86.8094 4.95069 87.8361 5.09069 88.6574 5.37069C89.4788 5.65069 90.1321 6.05202 90.6174 6.57469C91.1214 7.09736 91.4761 7.73202 91.6814 8.47869C91.8868 9.22536 91.9894 10.056 91.9894 10.9707V19.6507C91.3921 19.7814 90.5614 19.9307 89.4974 20.0987C88.4334 20.2854 87.1454 20.3787 85.6334 20.3787C84.6814 20.3787 83.8134 20.2947 83.0294 20.1267C82.2641 19.9587 81.6014 19.688 81.0414 19.3147C80.4814 18.9227 80.0521 18.4187 79.7534 17.8027C79.4548 17.1867 79.3054 16.4307 79.3054 15.5347C79.3054 14.676 79.4734 13.948 79.8094 13.3507C80.1641 12.7534 80.6308 12.2774 81.2094 11.9227C81.7881 11.568 82.4508 11.316 83.1974 11.1667C83.9441 10.9987 84.7188 10.9147 85.5214 10.9147C86.0628 10.9147 86.5388 10.9427 86.9494 10.9987C87.3788 11.036 87.7241 11.092 87.9854 11.1667V10.7747C87.9854 10.0654 87.7708 9.49602 87.3414 9.06669C86.9121 8.63736 86.1654 8.42269 85.1014 8.42269C84.3921 8.42269 83.6921 8.47869 83.0014 8.59069C82.3108 8.68402 81.7134 8.82402 81.2094 9.01069L80.6774 5.65069C80.9201 5.57602 81.2188 5.50136 81.5734 5.42669C81.9468 5.33336 82.3481 5.25869 82.7774 5.20269C83.2068 5.12802 83.6548 5.07202 84.1214 5.03469C84.6068 4.97869 85.0921 4.95069 85.5774 4.95069Z" fill="#41A58D"/>
<path d="M63.7971 5.84668C64.5065 5.64135 65.4212 5.45468 66.5412 5.28668C67.6611 5.10002 68.8372 5.00668 70.0691 5.00668C71.3198 5.00668 72.3558 5.17468 73.1771 5.51068C74.0172 5.82802 74.6798 6.28535 75.1652 6.88268C75.6505 7.48002 75.9958 8.18935 76.2011 9.01068C76.4065 9.83202 76.5092 10.7467 76.5092 11.7547V20.0707H72.3372V12.2587C72.3372 10.9147 72.1598 9.96269 71.8051 9.40269C71.4505 8.84269 70.7878 8.56269 69.8171 8.56269C69.5185 8.56269 69.2011 8.58135 68.8652 8.61869C68.5292 8.63735 68.2305 8.66535 67.9691 8.70268V20.0707H63.7971V5.84668Z" fill="#41A58D"/>
<path d="M53.9486 17.1587C54.3592 17.1587 54.7513 17.1494 55.1246 17.1307C55.4979 17.112 55.7966 17.084 56.0206 17.0467V13.8827C55.8526 13.8454 55.6006 13.808 55.2646 13.7707C54.9286 13.7334 54.6206 13.7147 54.3406 13.7147C53.9486 13.7147 53.5752 13.7427 53.2206 13.7987C52.8846 13.836 52.5859 13.92 52.3246 14.0507C52.0632 14.1814 51.8579 14.3587 51.7086 14.5827C51.5592 14.8067 51.4846 15.0867 51.4846 15.4227C51.4846 16.076 51.6992 16.5334 52.1286 16.7947C52.5766 17.0374 53.1833 17.1587 53.9486 17.1587ZM53.6126 4.95069C54.8446 4.95069 55.8712 5.09069 56.6926 5.37069C57.5139 5.65069 58.1672 6.05202 58.6526 6.57469C59.1566 7.09736 59.5112 7.73202 59.7166 8.47869C59.9219 9.22536 60.0246 10.056 60.0246 10.9707V19.6507C59.4272 19.7814 58.5966 19.9307 57.5326 20.0987C56.4686 20.2854 55.1806 20.3787 53.6686 20.3787C52.7166 20.3787 51.8486 20.2947 51.0646 20.1267C50.2993 19.9587 49.6366 19.688 49.0766 19.3147C48.5166 18.9227 48.0872 18.4187 47.7886 17.8027C47.4899 17.1867 47.3406 16.4307 47.3406 15.5347C47.3406 14.676 47.5086 13.948 47.8446 13.3507C48.1992 12.7534 48.6659 12.2774 49.2446 11.9227C49.8232 11.568 50.4859 11.316 51.2326 11.1667C51.9792 10.9987 52.7539 10.9147 53.5566 10.9147C54.0979 10.9147 54.5739 10.9427 54.9846 10.9987C55.4139 11.036 55.7592 11.092 56.0206 11.1667V10.7747C56.0206 10.0654 55.8059 9.49602 55.3766 9.06669C54.9473 8.63736 54.2006 8.42269 53.1366 8.42269C52.4272 8.42269 51.7272 8.47869 51.0366 8.59069C50.3459 8.68402 49.7486 8.82402 49.2446 9.01069L48.7126 5.65069C48.9552 5.57602 49.2539 5.50136 49.6086 5.42669C49.9819 5.33336 50.3833 5.25869 50.8126 5.20269C51.2419 5.12802 51.6899 5.07202 52.1566 5.03469C52.6419 4.97869 53.1272 4.95069 53.6126 4.95069Z" fill="#41A58D"/>
<path d="M38.9587 17.0747C39.7241 17.0747 40.2654 17 40.5827 16.8507C40.9001 16.7014 41.0587 16.412 41.0587 15.9827C41.0587 15.6467 40.8534 15.3574 40.4427 15.1147C40.0321 14.8534 39.4067 14.564 38.5667 14.2467C37.9134 14.004 37.3161 13.752 36.7747 13.4907C36.2521 13.2294 35.8041 12.9214 35.4307 12.5667C35.0574 12.1934 34.7681 11.7547 34.5627 11.2507C34.3574 10.7467 34.2547 10.14 34.2547 9.43069C34.2547 8.04936 34.7681 6.95736 35.7947 6.15469C36.8214 5.35202 38.2307 4.95069 40.0227 4.95069C40.9187 4.95069 41.7774 5.03469 42.5987 5.20269C43.4201 5.35202 44.0734 5.52002 44.5587 5.70669L43.8307 8.95469C43.3454 8.78669 42.8134 8.63736 42.2347 8.50669C41.6747 8.37602 41.0401 8.31069 40.3307 8.31069C39.0241 8.31069 38.3707 8.67469 38.3707 9.40269C38.3707 9.57069 38.3988 9.72002 38.4548 9.85069C38.5107 9.98136 38.6227 10.112 38.7907 10.2427C38.9587 10.3547 39.1827 10.4854 39.4627 10.6347C39.7614 10.7654 40.1347 10.9147 40.5827 11.0827C41.4974 11.4187 42.2534 11.7547 42.8507 12.0907C43.4481 12.408 43.9147 12.7627 44.2507 13.1547C44.6054 13.528 44.8481 13.948 44.9787 14.4147C45.1281 14.8814 45.2028 15.4227 45.2028 16.0387C45.2028 17.4947 44.6521 18.596 43.5508 19.3427C42.4681 20.0894 40.9281 20.4627 38.9307 20.4627C37.6241 20.4627 36.5321 20.3507 35.6547 20.1267C34.7961 19.9027 34.1987 19.716 33.8627 19.5667L34.5627 16.1787C35.2721 16.4587 36.0001 16.6827 36.7467 16.8507C37.4934 17 38.2307 17.0747 38.9587 17.0747Z" fill="#41A58D"/>
<path d="M24.8822 17.1587C25.2928 17.1587 25.6848 17.1494 26.0582 17.1307C26.4315 17.112 26.7302 17.084 26.9542 17.0467V13.8827C26.7862 13.8454 26.5342 13.808 26.1982 13.7707C25.8622 13.7334 25.5542 13.7147 25.2742 13.7147C24.8822 13.7147 24.5088 13.7427 24.1542 13.7987C23.8182 13.836 23.5195 13.92 23.2582 14.0507C22.9968 14.1814 22.7915 14.3587 22.6422 14.5827C22.4928 14.8067 22.4182 15.0867 22.4182 15.4227C22.4182 16.076 22.6328 16.5334 23.0622 16.7947C23.5102 17.0374 24.1168 17.1587 24.8822 17.1587ZM24.5462 4.95069C25.7782 4.95069 26.8048 5.09069 27.6262 5.37069C28.4475 5.65069 29.1008 6.05202 29.5862 6.57469C30.0902 7.09736 30.4448 7.73202 30.6502 8.47869C30.8555 9.22536 30.9582 10.056 30.9582 10.9707V19.6507C30.3608 19.7814 29.5302 19.9307 28.4662 20.0987C27.4022 20.2854 26.1142 20.3787 24.6022 20.3787C23.6502 20.3787 22.7822 20.2947 21.9982 20.1267C21.2328 19.9587 20.5702 19.688 20.0102 19.3147C19.4502 18.9227 19.0208 18.4187 18.7222 17.8027C18.4235 17.1867 18.2742 16.4307 18.2742 15.5347C18.2742 14.676 18.4422 13.948 18.7782 13.3507C19.1328 12.7534 19.5995 12.2774 20.1782 11.9227C20.7568 11.568 21.4195 11.316 22.1662 11.1667C22.9128 10.9987 23.6875 10.9147 24.4902 10.9147C25.0315 10.9147 25.5075 10.9427 25.9182 10.9987C26.3475 11.036 26.6928 11.092 26.9542 11.1667V10.7747C26.9542 10.0654 26.7395 9.49602 26.3102 9.06669C25.8808 8.63736 25.1342 8.42269 24.0702 8.42269C23.3608 8.42269 22.6608 8.47869 21.9702 8.59069C21.2795 8.68402 20.6822 8.82402 20.1782 9.01069L19.6462 5.65069C19.8888 5.57602 20.1875 5.50136 20.5422 5.42669C20.9155 5.33336 21.3168 5.25869 21.7462 5.20269C22.1755 5.12802 22.6235 5.07202 23.0902 5.03469C23.5755 4.97869 24.0608 4.95069 24.5462 4.95069Z" fill="#41A58D"/>
<path d="M12.119 20.0707C11.727 19.436 11.2603 18.7547 10.719 18.0267C10.1963 17.28 9.61766 16.5427 8.98299 15.8147C8.36699 15.068 7.72299 14.3587 7.05099 13.6867C6.37899 12.996 5.70699 12.3894 5.03499 11.8667V20.0707H0.666992V0.666687H5.03499V8.00269C6.17366 6.80802 7.31233 5.56669 8.45099 4.27869C9.60833 2.97202 10.6817 1.76802 11.671 0.666687H16.851C15.5257 2.23469 14.191 3.74669 12.847 5.20269C11.5217 6.65869 10.1217 8.12402 8.64699 9.59869C10.1963 10.8867 11.6897 12.4174 13.127 14.1907C14.583 15.964 15.9737 17.924 17.299 20.0707H12.119Z" fill="#41A58D"/>
</g>
</g>
</svg>
