<svg width="131" height="21" viewBox="0 0 131 21" fill="none" xmlns="http://www.w3.org/2000/svg">
  <path d="M130.198 8.14269C129.862 8.51602 129.405 9.02002 128.826 9.65469C128.266 10.2894 127.659 10.9894 127.006 11.7547C126.353 12.52 125.69 13.3227 125.018 14.1627C124.365 15.0027 123.767 15.8147 123.226 16.5987H130.338V20.0707H118.158V17.6067C118.55 16.9347 119.017 16.216 119.558 15.4507C120.118 14.6667 120.697 13.8827 121.294 13.0987C121.91 12.3147 122.517 11.5587 123.114 10.8307C123.711 10.084 124.262 9.41202 124.766 8.81469H118.494V5.34269H130.198V8.14269Z" fill="white"/>
  <path d="M115.222 19.5667C114.512 19.772 113.598 19.9587 112.478 20.1267C111.358 20.3134 110.182 20.4067 108.95 20.4067C107.699 20.4067 106.654 20.2387 105.814 19.9027C104.992 19.5667 104.339 19.1 103.854 18.5027C103.368 17.8867 103.023 17.1587 102.818 16.3187C102.612 15.4787 102.51 14.5547 102.51 13.5467V5.34269H106.682V13.0427C106.682 14.3867 106.859 15.3574 107.214 15.9547C107.568 16.552 108.231 16.8507 109.202 16.8507C109.5 16.8507 109.818 16.8414 110.154 16.8227C110.49 16.7854 110.788 16.748 111.05 16.7107V5.34269H115.222V19.5667Z" fill="white"/>
  <path d="M99.8471 17.8587C99.8471 18.6987 99.5764 19.3427 99.0351 19.7907C98.5124 20.22 97.9151 20.4347 97.2431 20.4347C96.5711 20.4347 95.9644 20.22 95.4231 19.7907C94.9004 19.3427 94.6391 18.6987 94.6391 17.8587C94.6391 17.0187 94.9004 16.384 95.4231 15.9547C95.9644 15.5067 96.5711 15.2827 97.2431 15.2827C97.9151 15.2827 98.5124 15.5067 99.0351 15.9547C99.5764 16.384 99.8471 17.0187 99.8471 17.8587Z" fill="white"/>
  <path d="M85.9105 17.1587C86.3212 17.1587 86.7132 17.1494 87.0865 17.1307C87.4598 17.112 87.7585 17.084 87.9825 17.0467V13.8827C87.8145 13.8454 87.5625 13.808 87.2265 13.7707C86.8905 13.7334 86.5825 13.7147 86.3025 13.7147C85.9105 13.7147 85.5372 13.7427 85.1825 13.7987C84.8465 13.836 84.5478 13.92 84.2865 14.0507C84.0252 14.1814 83.8198 14.3587 83.6705 14.5827C83.5212 14.8067 83.4465 15.0867 83.4465 15.4227C83.4465 16.076 83.6612 16.5334 84.0905 16.7947C84.5385 17.0374 85.1452 17.1587 85.9105 17.1587ZM85.5745 4.95069C86.8065 4.95069 87.8332 5.09069 88.6545 5.37069C89.4758 5.65069 90.1292 6.05202 90.6145 6.57469C91.1185 7.09736 91.4732 7.73202 91.6785 8.47869C91.8838 9.22536 91.9865 10.056 91.9865 10.9707V19.6507C91.3892 19.7814 90.5585 19.9307 89.4945 20.0987C88.4305 20.2854 87.1425 20.3787 85.6305 20.3787C84.6785 20.3787 83.8105 20.2947 83.0265 20.1267C82.2612 19.9587 81.5985 19.688 81.0385 19.3147C80.4785 18.9227 80.0492 18.4187 79.7505 17.8027C79.4518 17.1867 79.3025 16.4307 79.3025 15.5347C79.3025 14.676 79.4705 13.948 79.8065 13.3507C80.1612 12.7534 80.6278 12.2774 81.2065 11.9227C81.7852 11.568 82.4478 11.316 83.1945 11.1667C83.9412 10.9987 84.7158 10.9147 85.5185 10.9147C86.0598 10.9147 86.5358 10.9427 86.9465 10.9987C87.3758 11.036 87.7212 11.092 87.9825 11.1667V10.7747C87.9825 10.0654 87.7678 9.49602 87.3385 9.06669C86.9092 8.63736 86.1625 8.42269 85.0985 8.42269C84.3892 8.42269 83.6892 8.47869 82.9985 8.59069C82.3078 8.68402 81.7105 8.82402 81.2065 9.01069L80.6745 5.65069C80.9172 5.57602 81.2158 5.50136 81.5705 5.42669C81.9438 5.33336 82.3452 5.25869 82.7745 5.20269C83.2038 5.12802 83.6518 5.07202 84.1185 5.03469C84.6038 4.97869 85.0892 4.95069 85.5745 4.95069Z" fill="white"/>
  <path d="M63.7942 5.84668C64.5036 5.64135 65.4182 5.45468 66.5382 5.28668C67.6582 5.10002 68.8342 5.00668 70.0662 5.00668C71.3169 5.00668 72.3529 5.17468 73.1742 5.51068C74.0142 5.82802 74.6769 6.28535 75.1622 6.88268C75.6476 7.48002 75.9929 8.18935 76.1982 9.01068C76.4035 9.83202 76.5062 10.7467 76.5062 11.7547V20.0707H72.3342V12.2587C72.3342 10.9147 72.1569 9.96269 71.8022 9.40269C71.4475 8.84269 70.7849 8.56269 69.8142 8.56269C69.5155 8.56269 69.1982 8.58135 68.8622 8.61869C68.5262 8.63735 68.2276 8.66535 67.9662 8.70268V20.0707H63.7942V5.84668Z" fill="white"/>
  <path d="M53.9457 17.1587C54.3563 17.1587 54.7483 17.1494 55.1217 17.1307C55.495 17.112 55.7937 17.084 56.0177 17.0467V13.8827C55.8497 13.8454 55.5977 13.808 55.2617 13.7707C54.9257 13.7334 54.6177 13.7147 54.3377 13.7147C53.9457 13.7147 53.5723 13.7427 53.2177 13.7987C52.8817 13.836 52.583 13.92 52.3217 14.0507C52.0603 14.1814 51.855 14.3587 51.7057 14.5827C51.5563 14.8067 51.4817 15.0867 51.4817 15.4227C51.4817 16.076 51.6963 16.5334 52.1257 16.7947C52.5737 17.0374 53.1803 17.1587 53.9457 17.1587ZM53.6097 4.95069C54.8417 4.95069 55.8683 5.09069 56.6897 5.37069C57.511 5.65069 58.1643 6.05202 58.6497 6.57469C59.1537 7.09736 59.5083 7.73202 59.7137 8.47869C59.919 9.22536 60.0217 10.056 60.0217 10.9707V19.6507C59.4243 19.7814 58.5937 19.9307 57.5297 20.0987C56.4657 20.2854 55.1777 20.3787 53.6657 20.3787C52.7137 20.3787 51.8457 20.2947 51.0617 20.1267C50.2963 19.9587 49.6337 19.688 49.0737 19.3147C48.5137 18.9227 48.0843 18.4187 47.7857 17.8027C47.487 17.1867 47.3377 16.4307 47.3377 15.5347C47.3377 14.676 47.5057 13.948 47.8417 13.3507C48.1963 12.7534 48.663 12.2774 49.2417 11.9227C49.8203 11.568 50.483 11.316 51.2297 11.1667C51.9763 10.9987 52.751 10.9147 53.5536 10.9147C54.095 10.9147 54.571 10.9427 54.9817 10.9987C55.411 11.036 55.7563 11.092 56.0177 11.1667V10.7747C56.0177 10.0654 55.803 9.49602 55.3737 9.06669C54.9443 8.63736 54.1977 8.42269 53.1337 8.42269C52.4243 8.42269 51.7243 8.47869 51.0337 8.59069C50.343 8.68402 49.7457 8.82402 49.2417 9.01069L48.7097 5.65069C48.9523 5.57602 49.251 5.50136 49.6057 5.42669C49.979 5.33336 50.3803 5.25869 50.8097 5.20269C51.239 5.12802 51.687 5.07202 52.1537 5.03469C52.639 4.97869 53.1243 4.95069 53.6097 4.95069Z" fill="white"/>
  <path d="M38.9558 17.0747C39.7212 17.0747 40.2625 17 40.5798 16.8507C40.8971 16.7014 41.0558 16.412 41.0558 15.9827C41.0558 15.6467 40.8505 15.3574 40.4398 15.1147C40.0292 14.8534 39.4038 14.564 38.5638 14.2467C37.9105 14.004 37.3131 13.752 36.7718 13.4907C36.2491 13.2294 35.8012 12.9214 35.4278 12.5667C35.0545 12.1934 34.7652 11.7547 34.5598 11.2507C34.3545 10.7467 34.2518 10.14 34.2518 9.43069C34.2518 8.04936 34.7652 6.95736 35.7918 6.15469C36.8185 5.35202 38.2278 4.95069 40.0198 4.95069C40.9158 4.95069 41.7745 5.03469 42.5958 5.20269C43.4172 5.35202 44.0705 5.52002 44.5558 5.70669L43.8278 8.95469C43.3425 8.78669 42.8105 8.63736 42.2318 8.50669C41.6718 8.37602 41.0372 8.31069 40.3278 8.31069C39.0212 8.31069 38.3678 8.67469 38.3678 9.40269C38.3678 9.57069 38.3958 9.72002 38.4518 9.85069C38.5078 9.98136 38.6198 10.112 38.7878 10.2427C38.9558 10.3547 39.1798 10.4854 39.4598 10.6347C39.7585 10.7654 40.1318 10.9147 40.5798 11.0827C41.4945 11.4187 42.2505 11.7547 42.8478 12.0907C43.4451 12.408 43.9118 12.7627 44.2478 13.1547C44.6025 13.528 44.8452 13.948 44.9758 14.4147C45.1252 14.8814 45.1998 15.4227 45.1998 16.0387C45.1998 17.4947 44.6492 18.596 43.5478 19.3427C42.4652 20.0894 40.9251 20.4627 38.9278 20.4627C37.6212 20.4627 36.5292 20.3507 35.6518 20.1267C34.7932 19.9027 34.1958 19.716 33.8598 19.5667L34.5598 16.1787C35.2691 16.4587 35.9972 16.6827 36.7438 16.8507C37.4905 17 38.2278 17.0747 38.9558 17.0747Z" fill="white"/>
  <path d="M24.8792 17.1587C25.2899 17.1587 25.6819 17.1494 26.0552 17.1307C26.4286 17.112 26.7272 17.084 26.9512 17.0467V13.8827C26.7832 13.8454 26.5312 13.808 26.1952 13.7707C25.8592 13.7334 25.5512 13.7147 25.2712 13.7147C24.8792 13.7147 24.5059 13.7427 24.1512 13.7987C23.8152 13.836 23.5166 13.92 23.2552 14.0507C22.9939 14.1814 22.7886 14.3587 22.6392 14.5827C22.4899 14.8067 22.4152 15.0867 22.4152 15.4227C22.4152 16.076 22.6299 16.5334 23.0592 16.7947C23.5072 17.0374 24.1139 17.1587 24.8792 17.1587ZM24.5432 4.95069C25.7752 4.95069 26.8019 5.09069 27.6232 5.37069C28.4446 5.65069 29.0979 6.05202 29.5832 6.57469C30.0872 7.09736 30.4419 7.73202 30.6472 8.47869C30.8526 9.22536 30.9552 10.056 30.9552 10.9707V19.6507C30.3579 19.7814 29.5272 19.9307 28.4632 20.0987C27.3992 20.2854 26.1112 20.3787 24.5992 20.3787C23.6472 20.3787 22.7792 20.2947 21.9952 20.1267C21.2299 19.9587 20.5672 19.688 20.0072 19.3147C19.4472 18.9227 19.0179 18.4187 18.7192 17.8027C18.4206 17.1867 18.2712 16.4307 18.2712 15.5347C18.2712 14.676 18.4392 13.948 18.7752 13.3507C19.1299 12.7534 19.5966 12.2774 20.1752 11.9227C20.7539 11.568 21.4166 11.316 22.1632 11.1667C22.9099 10.9987 23.6846 10.9147 24.4872 10.9147C25.0286 10.9147 25.5046 10.9427 25.9152 10.9987C26.3446 11.036 26.6899 11.092 26.9512 11.1667V10.7747C26.9512 10.0654 26.7366 9.49602 26.3072 9.06669C25.8779 8.63736 25.1312 8.42269 24.0672 8.42269C23.3579 8.42269 22.6579 8.47869 21.9672 8.59069C21.2766 8.68402 20.6792 8.82402 20.1752 9.01069L19.6432 5.65069C19.8859 5.57602 20.1846 5.50136 20.5392 5.42669C20.9126 5.33336 21.3139 5.25869 21.7432 5.20269C22.1726 5.12802 22.6206 5.07202 23.0872 5.03469C23.5726 4.97869 24.0579 4.95069 24.5432 4.95069Z" fill="white"/>
  <path d="M12.1161 20.0707C11.7241 19.436 11.2574 18.7547 10.7161 18.0267C10.1934 17.28 9.61473 16.5427 8.98006 15.8147C8.36406 15.068 7.72006 14.3587 7.04806 13.6867C6.37606 12.996 5.70406 12.3894 5.03206 11.8667V20.0707H0.664062V0.666687H5.03206V8.00269C6.17073 6.80802 7.3094 5.56669 8.44806 4.27869C9.6054 2.97202 10.6787 1.76802 11.6681 0.666687H16.8481C15.5227 2.23469 14.1881 3.74669 12.8441 5.20269C11.5187 6.65869 10.1187 8.12402 8.64406 9.59869C10.1934 10.8867 11.6867 12.4174 13.1241 14.1907C14.5801 15.964 15.9707 17.924 17.2961 20.0707H12.1161Z" fill="white"/>
</svg>