<svg width="24" height="24" viewBox="0 0 24 24" fill="none" xmlns="http://www.w3.org/2000/svg">
  <g clip-path="url(#clip0_2314_40259)">
    <path d="M7 11C9.757 11 12 8.757 12 6C12 3.243 9.757 1 7 1C4.243 1 2 3.243 2 6C2 8.757 4.243 11 7 11ZM7 3C8.654 3 10 4.346 10 6C10 7.654 8.654 9 7 9C5.346 9 4 7.654 4 6C4 4.346 5.346 3 7 3ZM11.88 17.802C11.96 18.196 12 18.598 12 19V23C12 23.553 11.552 24 11 24C10.448 24 10 23.553 10 23V19C10 18.731 9.973 18.461 9.92 18.198C9.81 17.657 10.16 17.13 10.702 17.019C11.243 16.911 11.771 17.26 11.88 17.802ZM23 3.592V1C23 0.735 22.895 0.48 22.707 0.293C22.519 0.106 22.265 0 22 0C21.449 0 21.028 0.295 20.905 0.724C20.669 1.547 19.992 2 19 2H17C15.346 2 14 3.346 14 5C14 5.695 14.247 6.327 14.645 6.836L16.418 10.948L14.744 12.693C14.556 12.888 14.293 13.001 14.022 13.001H6C2.691 13.001 0 15.692 0 19.001V23.001C0 23.554 0.448 24.001 1 24.001C1.552 24.001 2 23.554 2 23.001V19.001C2 16.795 3.794 15.001 6 15.001H14.022C14.834 15.001 15.623 14.665 16.187 14.078C16.187 14.078 18.272 11.895 18.524 11.643C18.776 11.391 19.005 10.935 18.996 10.703C19.015 10.472 18.976 10.237 18.879 10.017L18.089 8.001H19.001C19.993 8.001 20.67 8.454 20.906 9.277C21.029 9.706 21.424 10.001 22 10.001C22.552 10.001 23 9.553 23 9.001V6.409C23.581 6.202 24.001 5.652 24.001 5.001C24.001 4.35 23.582 3.8 23.001 3.593L23 3.592ZM21 6.464C20.421 6.163 19.743 6 19 6H17C16.449 6 16 5.551 16 5C16 4.449 16.449 4 17 4H19C19.743 4 20.421 3.837 21 3.536V6.464Z" fill="#757575"/>
  </g>
  <defs>
    <clipPath id="clip0_2314_40259">
      <rect width="24" height="24" fill="white"/>
    </clipPath>
  </defs>
</svg>