<svg width="24" height="24" viewBox="0 0 24 24" fill="none" xmlns="http://www.w3.org/2000/svg">
  <path d="M2.3999 9.24418C2.3999 8.85016 2.60045 8.4805 2.93811 8.25215L11.2581 2.62564C11.7022 2.32531 12.2976 2.32531 12.7417 2.62564L21.0617 8.25216C21.3994 8.4805 21.5999 8.85016 21.5999 9.24418V19.7745C21.5999 20.7829 20.7403 21.6004 19.6799 21.6004H4.3199C3.25952 21.6004 2.3999 20.7829 2.3999 19.7745V9.24418Z" stroke="#41A58D" stroke-width="2"/>
  <path d="M14.3999 13.2004C14.3999 14.5259 13.3254 15.6004 11.9999 15.6004C10.6744 15.6004 9.5999 14.5259 9.5999 13.2004C9.5999 11.8749 10.6744 10.8004 11.9999 10.8004C13.3254 10.8004 14.3999 11.8749 14.3999 13.2004Z" stroke="#41A58D" stroke-width="2"/>
</svg>