<svg width="112" height="17" viewBox="0 0 112 17" fill="none" xmlns="http://www.w3.org/2000/svg">
  <path d="M111.029 6.408C110.741 6.728 110.349 7.16 109.853 7.704C109.373 8.248 108.853 8.848 108.293 9.504C107.733 10.16 107.165 10.848 106.589 11.568C106.029 12.288 105.517 12.984 105.053 13.656H111.149V16.632H100.709V14.52C101.045 13.944 101.445 13.328 101.909 12.672C102.389 12 102.885 11.328 103.397 10.656C103.925 9.984 104.445 9.336 104.957 8.712C105.469 8.072 105.941 7.496 106.373 6.984H100.997V4.008H111.029V6.408Z" fill="#41A58D"/>
  <path d="M98.1923 16.2C97.5843 16.376 96.8003 16.536 95.8403 16.68C94.8803 16.84 93.8723 16.92 92.8163 16.92C91.7443 16.92 90.8483 16.776 90.1283 16.488C89.4242 16.2 88.8643 15.8 88.4482 15.288C88.0322 14.76 87.7363 14.136 87.5602 13.416C87.3842 12.696 87.2962 11.904 87.2962 11.04V4.008H90.8723V10.608C90.8723 11.76 91.0243 12.592 91.3283 13.104C91.6323 13.616 92.2002 13.872 93.0322 13.872C93.2882 13.872 93.5602 13.864 93.8483 13.848C94.1363 13.816 94.3923 13.784 94.6162 13.752V4.008H98.1923V16.2Z" fill="#41A58D"/>
  <path d="M85.014 14.736C85.014 15.456 84.782 16.008 84.318 16.392C83.87 16.76 83.358 16.944 82.782 16.944C82.206 16.944 81.686 16.76 81.222 16.392C80.774 16.008 80.55 15.456 80.55 14.736C80.55 14.016 80.774 13.472 81.222 13.104C81.686 12.72 82.206 12.528 82.782 12.528C83.358 12.528 83.87 12.72 84.318 13.104C84.782 13.472 85.014 14.016 85.014 14.736Z" fill="#41A58D"/>
  <path d="M73.0684 14.136C73.4204 14.136 73.7564 14.128 74.0764 14.112C74.3964 14.096 74.6524 14.072 74.8444 14.04V11.328C74.7004 11.296 74.4844 11.264 74.1964 11.232C73.9084 11.2 73.6444 11.184 73.4044 11.184C73.0684 11.184 72.7484 11.208 72.4444 11.256C72.1564 11.288 71.9004 11.36 71.6764 11.472C71.4524 11.584 71.2764 11.736 71.1484 11.928C71.0204 12.12 70.9564 12.36 70.9564 12.648C70.9564 13.208 71.1404 13.6 71.5084 13.824C71.8924 14.032 72.4124 14.136 73.0684 14.136ZM72.7804 3.672C73.8364 3.672 74.7164 3.792 75.4204 4.032C76.1244 4.272 76.6844 4.616 77.1004 5.064C77.5324 5.512 77.8364 6.056 78.0124 6.696C78.1884 7.336 78.2764 8.048 78.2764 8.832V16.272C77.7644 16.384 77.0524 16.512 76.1404 16.656C75.2284 16.816 74.1244 16.896 72.8284 16.896C72.0124 16.896 71.2684 16.824 70.5964 16.68C69.9404 16.536 69.3724 16.304 68.8924 15.984C68.4124 15.648 68.0444 15.216 67.7884 14.688C67.5324 14.16 67.4044 13.512 67.4044 12.744C67.4044 12.008 67.5484 11.384 67.8364 10.872C68.1404 10.36 68.5404 9.952 69.0364 9.648C69.5324 9.344 70.1004 9.128 70.7404 9C71.3804 8.856 72.0444 8.784 72.7324 8.784C73.1964 8.784 73.6044 8.808 73.9564 8.856C74.3244 8.888 74.6204 8.936 74.8444 9V8.664C74.8444 8.056 74.6604 7.568 74.2924 7.2C73.9244 6.832 73.2844 6.648 72.3724 6.648C71.7644 6.648 71.1644 6.696 70.5724 6.792C69.9804 6.872 69.4684 6.992 69.0364 7.152L68.5804 4.272C68.7884 4.208 69.0444 4.144 69.3484 4.08C69.6684 4 70.0124 3.936 70.3804 3.888C70.7484 3.824 71.1324 3.776 71.5324 3.744C71.9484 3.696 72.3644 3.672 72.7804 3.672Z" fill="#41A58D"/>
  <path d="M54.1116 4.44C54.7196 4.264 55.5036 4.104 56.4636 3.96C57.4236 3.8 58.4316 3.72 59.4876 3.72C60.5596 3.72 61.4476 3.864 62.1516 4.152C62.8716 4.424 63.4396 4.816 63.8556 5.328C64.2716 5.84 64.5676 6.448 64.7436 7.152C64.9196 7.856 65.0076 8.64 65.0076 9.504V16.632H61.4316V9.936C61.4316 8.784 61.2796 7.968 60.9756 7.488C60.6716 7.008 60.1036 6.768 59.2716 6.768C59.0156 6.768 58.7436 6.784 58.4556 6.816C58.1676 6.832 57.9116 6.856 57.6876 6.888V16.632H54.1116V4.44Z" fill="#41A58D"/>
  <path d="M45.6699 14.136C46.0219 14.136 46.3579 14.128 46.6779 14.112C46.9979 14.096 47.2539 14.072 47.4459 14.04V11.328C47.3019 11.296 47.0859 11.264 46.7979 11.232C46.5099 11.2 46.2459 11.184 46.0059 11.184C45.6699 11.184 45.3499 11.208 45.0459 11.256C44.7579 11.288 44.5019 11.36 44.2779 11.472C44.0539 11.584 43.8779 11.736 43.7499 11.928C43.6219 12.12 43.5579 12.36 43.5579 12.648C43.5579 13.208 43.7419 13.6 44.1099 13.824C44.4939 14.032 45.0139 14.136 45.6699 14.136ZM45.3819 3.672C46.4379 3.672 47.3179 3.792 48.0219 4.032C48.7259 4.272 49.2859 4.616 49.7019 5.064C50.1339 5.512 50.4379 6.056 50.6139 6.696C50.7899 7.336 50.8779 8.048 50.8779 8.832V16.272C50.3659 16.384 49.6539 16.512 48.7419 16.656C47.8299 16.816 46.7259 16.896 45.4299 16.896C44.6139 16.896 43.8699 16.824 43.1979 16.68C42.5419 16.536 41.9739 16.304 41.4939 15.984C41.0139 15.648 40.6459 15.216 40.3899 14.688C40.1339 14.16 40.0059 13.512 40.0059 12.744C40.0059 12.008 40.1499 11.384 40.4379 10.872C40.7419 10.36 41.1419 9.952 41.6379 9.648C42.1339 9.344 42.7019 9.128 43.3419 9C43.9819 8.856 44.6459 8.784 45.3339 8.784C45.7979 8.784 46.2059 8.808 46.5579 8.856C46.9259 8.888 47.2219 8.936 47.4459 9V8.664C47.4459 8.056 47.2619 7.568 46.8939 7.2C46.5259 6.832 45.8859 6.648 44.9739 6.648C44.3659 6.648 43.7659 6.696 43.1739 6.792C42.5819 6.872 42.0699 6.992 41.6379 7.152L41.1819 4.272C41.3899 4.208 41.6459 4.144 41.9499 4.08C42.2699 4 42.6139 3.936 42.9819 3.888C43.3499 3.824 43.7339 3.776 44.1339 3.744C44.5499 3.696 44.9659 3.672 45.3819 3.672Z" fill="#41A58D"/>
  <path d="M32.8215 14.064C33.4775 14.064 33.9415 14 34.2135 13.872C34.4855 13.744 34.6215 13.496 34.6215 13.128C34.6215 12.84 34.4455 12.592 34.0935 12.384C33.7415 12.16 33.2055 11.912 32.4855 11.64C31.9255 11.432 31.4135 11.216 30.9495 10.992C30.5015 10.768 30.1175 10.504 29.7975 10.2C29.4775 9.88 29.2295 9.504 29.0535 9.072C28.8775 8.64 28.7895 8.12 28.7895 7.512C28.7895 6.328 29.2295 5.392 30.1095 4.704C30.9895 4.016 32.1975 3.672 33.7335 3.672C34.5015 3.672 35.2375 3.744 35.9415 3.888C36.6455 4.016 37.2055 4.16 37.6215 4.32L36.9975 7.104C36.5815 6.96 36.1255 6.832 35.6295 6.72C35.1495 6.608 34.6055 6.552 33.9975 6.552C32.8775 6.552 32.3175 6.864 32.3175 7.488C32.3175 7.632 32.3415 7.76 32.3895 7.872C32.4375 7.984 32.5335 8.096 32.6775 8.208C32.8215 8.304 33.0135 8.416 33.2535 8.544C33.5095 8.656 33.8295 8.784 34.2135 8.928C34.9975 9.216 35.6455 9.504 36.1575 9.792C36.6695 10.064 37.0695 10.368 37.3575 10.704C37.6615 11.024 37.8695 11.384 37.9815 11.784C38.1095 12.184 38.1735 12.648 38.1735 13.176C38.1735 14.424 37.7015 15.368 36.7575 16.008C35.8295 16.648 34.5095 16.968 32.7975 16.968C31.6775 16.968 30.7415 16.872 29.9895 16.68C29.2535 16.488 28.7415 16.328 28.4535 16.2L29.0535 13.296C29.6615 13.536 30.2855 13.728 30.9255 13.872C31.5655 14 32.1975 14.064 32.8215 14.064Z" fill="#41A58D"/>
  <path d="M20.7559 14.136C21.1079 14.136 21.4439 14.128 21.7639 14.112C22.0839 14.096 22.3399 14.072 22.5319 14.04V11.328C22.3879 11.296 22.1719 11.264 21.8839 11.232C21.5959 11.2 21.3319 11.184 21.0919 11.184C20.7559 11.184 20.4359 11.208 20.1319 11.256C19.8439 11.288 19.5879 11.36 19.3639 11.472C19.1399 11.584 18.9639 11.736 18.8359 11.928C18.7079 12.12 18.6439 12.36 18.6439 12.648C18.6439 13.208 18.8279 13.6 19.1959 13.824C19.5799 14.032 20.0999 14.136 20.7559 14.136ZM20.4679 3.672C21.5239 3.672 22.4039 3.792 23.1079 4.032C23.8119 4.272 24.3719 4.616 24.7879 5.064C25.2199 5.512 25.5239 6.056 25.6999 6.696C25.8759 7.336 25.9639 8.048 25.9639 8.832V16.272C25.4519 16.384 24.7399 16.512 23.8279 16.656C22.9159 16.816 21.8119 16.896 20.5159 16.896C19.6999 16.896 18.9559 16.824 18.2839 16.68C17.6279 16.536 17.0599 16.304 16.5799 15.984C16.0999 15.648 15.7319 15.216 15.4759 14.688C15.2199 14.16 15.0919 13.512 15.0919 12.744C15.0919 12.008 15.2359 11.384 15.5239 10.872C15.8279 10.36 16.2279 9.952 16.7239 9.648C17.2199 9.344 17.7879 9.128 18.4279 9C19.0679 8.856 19.7319 8.784 20.4199 8.784C20.8839 8.784 21.2919 8.808 21.6439 8.856C22.0119 8.888 22.3079 8.936 22.5319 9V8.664C22.5319 8.056 22.3479 7.568 21.9799 7.2C21.6119 6.832 20.9719 6.648 20.0599 6.648C19.4519 6.648 18.8519 6.696 18.2599 6.792C17.6679 6.872 17.1559 6.992 16.7239 7.152L16.2679 4.272C16.4759 4.208 16.7319 4.144 17.0359 4.08C17.3559 4 17.6999 3.936 18.0679 3.888C18.4359 3.824 18.8199 3.776 19.2199 3.744C19.6359 3.696 20.0519 3.672 20.4679 3.672Z" fill="#41A58D"/>
  <path d="M9.816 16.632C9.48 16.088 9.08 15.504 8.616 14.88C8.168 14.24 7.672 13.608 7.128 12.984C6.6 12.344 6.048 11.736 5.472 11.16C4.896 10.568 4.32 10.048 3.744 9.6V16.632H0V0H3.744V6.288C4.72 5.264 5.696 4.2 6.672 3.096C7.664 1.976 8.584 0.944 9.432 0H13.872C12.736 1.344 11.592 2.64 10.44 3.888C9.304 5.136 8.104 6.392 6.84 7.656C8.168 8.76 9.448 10.072 10.68 11.592C11.928 13.112 13.12 14.792 14.256 16.632H9.816Z" fill="#41A58D"/>
</svg>