<svg width="24" height="24" viewBox="0 0 24 24" fill="none" xmlns="http://www.w3.org/2000/svg">
  <g clip-path="url(#clip0_2314_40313)">
    <path d="M23.707 23.707C23.512 23.902 23.256 24 23 24C22.744 24 22.488 23.902 22.293 23.707L16.324 17.738C14.599 19.15 12.397 20 10 20C4.486 20 0 15.514 0 9.99996C0 4.48596 4.486 -4.34527e-05 10 -4.34527e-05C11.758 -4.34527e-05 13.487 0.462957 15.001 1.33796C15.479 1.61496 15.643 2.22696 15.365 2.70496C15.18 3.02496 14.844 3.20396 14.499 3.20396C14.329 3.20396 14.157 3.16096 13.999 3.06996C12.79 2.36996 11.407 1.99996 10 1.99996C5.589 1.99996 2 5.58896 2 9.99996C2 11.167 2.257 12.274 2.709 13.274L6.508 8.71496C6.87 8.27896 7.404 8.01496 7.97 7.98896C8.532 7.96396 9.092 8.17696 9.494 8.57996L11.422 10.508L20.237 0.339957C20.599 -0.0790434 21.231 -0.122043 21.647 0.236957C22.065 0.597957 22.112 1.22996 21.751 1.64796L12.971 11.814C12.605 12.238 12.074 12.493 11.513 12.514C10.956 12.528 10.405 12.319 10.008 11.922L8.08 9.99396L3.817 15.069C5.285 16.857 7.512 17.999 10 17.999C14.411 17.999 18 14.41 18 9.99896C18 9.84896 17.995 9.69996 17.987 9.55196C17.958 8.99996 18.382 8.52996 18.933 8.49996C19.48 8.45996 19.955 8.89396 19.985 9.44496C19.995 9.62796 20 9.81296 20 9.99796C20 12.396 19.15 14.598 17.738 16.322L23.707 22.291C24.098 22.682 24.098 23.314 23.707 23.705V23.707Z" fill="#757575"/>
  </g>
  <defs>
    <clipPath id="clip0_2314_40313">
      <rect width="24" height="24" fill="white"/>
    </clipPath>
  </defs>
</svg>