<svg width="190" height="116" viewBox="0 0 190 116" fill="none" xmlns="http://www.w3.org/2000/svg">
  <g clip-path="url(#clip0_904_15057)">
    <path d="M42.177 15.8033L6.73828 39.2823L41.6452 90.9648L77.0839 67.4858L42.177 15.8033Z" fill="#F5F5F5"/>
    <path d="M58.7763 65.0417L58.3721 67.5068L40.7539 64.9917L41.1582 62.5266L58.7763 65.0417Z" fill="#E0E0E0"/>
    <path d="M49.9024 56.2451L52.4292 56.608L49.6276 73.7882L47.0977 73.4254L49.9024 56.2451Z" fill="#E0E0E0"/>
    <path d="M33.6764 34.4101C33.7017 34.4476 30.1515 36.8438 25.7454 39.7625C21.3393 42.6811 17.7481 45.0179 17.7228 44.9803C17.6975 44.9428 21.2477 42.5466 25.6538 39.6279C30.0599 36.7093 33.6511 34.3725 33.6764 34.4101Z" fill="#E0E0E0"/>
    <path d="M46.7059 31.1692C46.7312 31.2068 40.8248 35.164 33.516 40.0034C26.204 44.8459 20.2597 48.7405 20.2345 48.703C20.2092 48.6654 26.1124 44.7113 33.4244 39.8657C40.7332 35.0232 46.6806 31.1286 46.7059 31.1661V31.1692Z" fill="#E0E0E0"/>
    <path d="M49.3192 35.0389C49.3445 35.0764 43.438 39.0336 36.1293 43.873C28.8173 48.7155 22.873 52.6101 22.8477 52.5726C22.8225 52.5351 28.7257 48.581 36.0377 43.7353C43.3464 38.8928 49.2939 34.9982 49.3192 35.0357V35.0389Z" fill="#E0E0E0"/>
    <path d="M51.9325 38.9085C51.9577 38.946 46.0513 42.9032 38.7425 47.7426C31.4306 52.5851 25.4863 56.4798 25.461 56.4422C25.4358 56.4047 31.339 52.4506 38.6509 47.605C45.9597 42.7625 51.9072 38.8678 51.9325 38.9054V38.9085Z" fill="#E0E0E0"/>
    <path d="M54.5457 42.7749C54.571 42.8125 48.6646 46.7697 41.3558 51.6091C34.0439 56.4516 28.0996 60.3462 28.0743 60.3087C28.049 60.2711 33.9523 56.317 41.2642 51.4714C48.573 46.6289 54.5205 42.7343 54.5457 42.7718V42.7749Z" fill="#E0E0E0"/>
    <path d="M160.681 50.4365L130.918 70.1551L160.233 113.559L189.996 93.8403L160.681 50.4365Z" fill="#F5F5F5"/>
    <path d="M174.624 91.7943L174.286 93.8652L159.488 91.7536L159.826 89.6827L174.624 91.7943Z" fill="#E0E0E0"/>
    <path d="M167.169 84.4086L169.295 84.712L166.939 99.1394L164.816 98.836L167.169 84.4086Z" fill="#E0E0E0"/>
    <path d="M153.542 66.0709C153.568 66.1084 150.589 68.1261 146.887 70.5755C143.186 73.028 140.166 74.9832 140.141 74.9456C140.116 74.9081 143.094 72.8904 146.796 70.4379C150.494 67.9885 153.517 66.0302 153.542 66.0677V66.0709Z" fill="#E0E0E0"/>
    <path d="M164.487 63.3493C164.512 63.3869 159.556 66.7153 153.416 70.782C147.276 74.8487 142.279 78.1146 142.254 78.077C142.229 78.0395 147.184 74.7142 153.325 70.6444C159.462 66.5777 164.461 63.3118 164.487 63.3493Z" fill="#E0E0E0"/>
    <path d="M166.682 66.5964C166.707 66.6339 161.752 69.9624 155.611 74.0291C149.471 78.0958 144.475 81.3616 144.449 81.3241C144.424 81.2866 149.38 77.9613 155.52 73.8914C161.657 69.8247 166.657 66.5589 166.682 66.5964Z" fill="#E0E0E0"/>
    <path d="M168.873 69.8466C168.899 69.8842 163.943 73.2126 157.803 77.2762C151.663 81.3429 146.666 84.6088 146.641 84.5712C146.615 84.5337 151.571 81.2084 157.711 77.1386C163.848 73.0719 168.848 69.806 168.873 69.8435V69.8466Z" fill="#E0E0E0"/>
    <path d="M171.069 73.0938C171.094 73.1313 166.138 76.4597 159.998 80.5264C153.858 84.5931 148.861 87.859 148.836 87.8215C148.811 87.7839 153.766 84.4586 159.907 80.3888C166.044 76.3221 171.043 73.0562 171.069 73.0938Z" fill="#E0E0E0"/>
    <path d="M113.596 17.7062L81.1211 0.503479L55.5455 47.8636L88.0205 65.0663L113.596 17.7062Z" fill="#F5F5F5"/>
    <path d="M82.4656 50.2483L80.4063 50.9459L75.1758 36.628L77.2351 35.9272L82.4656 50.2483Z" fill="#E0E0E0"/>
    <path d="M85.6242 39.9752L86.3759 42.0304L72.0173 46.8979L71.2656 44.8458L85.6242 39.9752Z" fill="#E0E0E0"/>
    <path d="M95.8279 18.8471C95.8026 18.894 92.5083 17.1985 88.4717 15.0588C84.432 12.9191 81.1819 11.1485 81.2072 11.1016C81.2324 11.0547 84.5268 12.7502 88.5633 14.8899C92.5999 17.0296 95.8532 18.8002 95.8279 18.8471Z" fill="#E0E0E0"/>
    <path d="M103.617 27.3652C103.592 27.4122 98.1399 24.5749 91.4439 21.0275C84.7447 17.48 79.3342 14.5645 79.3595 14.5176C79.3847 14.4707 84.8363 17.308 91.5355 20.8585C98.2315 24.4059 103.642 27.3214 103.617 27.3684V27.3652Z" fill="#E0E0E0"/>
    <path d="M101.703 30.9127C101.677 30.9596 96.2259 28.1223 89.5298 24.5749C82.8307 21.0275 77.4201 18.112 77.4454 18.065C77.4707 18.0181 82.9223 20.8554 89.6214 24.4059C96.3175 27.9534 101.728 30.8689 101.703 30.9158V30.9127Z" fill="#E0E0E0"/>
    <path d="M99.7887 34.457C99.7634 34.5039 94.3118 31.6666 87.6158 28.1192C80.9166 24.5718 75.5061 21.6563 75.5313 21.6093C75.5566 21.5624 81.0082 24.3997 87.7074 27.9503C94.4034 31.4977 99.8139 34.4132 99.7887 34.4601V34.457Z" fill="#E0E0E0"/>
    <path d="M97.8746 38.0012C97.8493 38.0482 92.3978 35.2109 85.7017 31.6634C79.0025 28.116 73.592 25.2005 73.6173 25.1536C73.6425 25.1067 79.0941 27.944 85.7933 31.4945C92.4894 35.0419 97.8999 37.9574 97.8746 38.0044V38.0012Z" fill="#E0E0E0"/>
    <path d="M182.35 115.147C182.35 115.19 141.526 115.228 91.1798 115.228C40.8332 115.228 0 115.19 0 115.147C0 115.103 40.8142 115.065 91.1798 115.065C141.545 115.065 182.35 115.103 182.35 115.147Z" fill="#263238"/>
    <path d="M10.0893 95.5544C11.1569 95.5919 12.1582 96.1644 12.8625 96.9621C13.5669 97.7567 13.9996 98.7577 14.2744 99.7806C14.8082 101.758 14.4797 104.094 13.9111 106.062C11.7476 105.296 10.4147 103.012 9.8114 101.811C8.85753 99.912 8.29847 95.911 10.0862 95.5544" fill="#41A58D"/>
    <path d="M17.0279 108.458C16.3457 107.489 16.3299 106.14 16.87 105.083C17.4101 104.029 18.4461 103.269 19.5863 102.921C20.1138 102.762 20.7266 102.693 21.1845 102.996C21.6141 103.281 21.8004 103.838 21.7436 104.345C21.6867 104.851 21.4277 105.318 21.1214 105.727C20.0696 107.138 18.7904 108.311 17.0279 108.455" fill="#41A58D"/>
    <path d="M17.2623 115.068C17.2623 115.068 17.2181 114.924 17.1644 114.658C17.1075 114.364 17.0317 113.986 16.9433 113.532C16.7727 112.584 16.5011 111.236 16.7064 109.747C16.9022 108.264 17.4992 106.994 18.1246 106.237C18.431 105.856 18.7279 105.583 18.9458 105.418C19.05 105.33 19.1448 105.277 19.2016 105.233C19.2616 105.192 19.2964 105.174 19.2995 105.18C19.3217 105.205 18.7942 105.53 18.2099 106.303C17.6192 107.063 17.0507 108.308 16.8549 109.769C16.6527 111.23 16.9022 112.566 17.0475 113.517C17.1233 113.995 17.1865 114.383 17.2244 114.652C17.2592 114.921 17.2749 115.071 17.2623 115.071V115.068Z" fill="#263238"/>
    <path d="M10.7891 98.5638C10.7891 98.5638 10.8238 98.6169 10.8775 98.7264C10.9344 98.8484 11.0102 99.008 11.1018 99.2019C11.2913 99.618 11.5629 100.222 11.8882 100.969C12.5389 102.468 13.4106 104.551 14.3203 106.869C15.2299 109.19 16.0038 111.311 16.5407 112.85C16.8092 113.62 17.024 114.246 17.1661 114.68C17.2324 114.887 17.2861 115.053 17.3272 115.181C17.3619 115.297 17.3777 115.356 17.3745 115.359C17.3714 115.362 17.343 115.303 17.2987 115.19C17.2514 115.062 17.1882 114.899 17.1124 114.699C16.9482 114.255 16.7207 113.639 16.4428 112.885C15.8774 111.352 15.0878 109.24 14.1813 106.919C13.2716 104.601 12.4189 102.515 11.7935 101.007C11.4871 100.266 11.2344 99.6586 11.0512 99.2207C10.9691 99.0205 10.9059 98.8578 10.8554 98.7327C10.8112 98.6201 10.7922 98.5606 10.7954 98.5575L10.7891 98.5638Z" fill="#263238"/>
    <path d="M14.699 110.695C13.423 108.546 11.0446 107.082 8.53359 106.9C7.89557 106.854 7.12489 106.96 6.84063 107.529C6.55636 108.099 6.93538 108.771 7.37126 109.24C9.18424 111.183 12.248 111.862 14.7211 110.867" fill="#41A58D"/>
    <path d="M9.50708 108.596C9.50708 108.596 9.64921 108.593 9.90821 108.612C10.0377 108.621 10.1956 108.63 10.3757 108.665C10.5557 108.699 10.7642 108.718 10.9884 108.777C11.2127 108.831 11.4622 108.887 11.718 108.978C11.9802 109.053 12.2487 109.165 12.5298 109.284C13.0857 109.534 13.6795 109.863 14.2417 110.288C14.8007 110.72 15.2714 111.202 15.6567 111.674C15.8399 111.915 16.0168 112.147 16.1557 112.381C16.3073 112.606 16.4211 112.832 16.5253 113.035C16.639 113.235 16.7053 113.432 16.7811 113.598C16.8569 113.764 16.9011 113.914 16.939 114.036C17.0149 114.28 17.0528 114.414 17.0433 114.418C17.0117 114.43 16.8569 113.883 16.4305 113.082C16.32 112.885 16.2031 112.666 16.0483 112.447C15.9094 112.218 15.7325 111.996 15.5461 111.762C15.164 111.302 14.6965 110.833 14.1469 110.407C13.5942 109.988 13.0162 109.663 12.4698 109.409C12.195 109.29 11.9297 109.175 11.6738 109.096C11.4243 109.003 11.1811 108.943 10.96 108.881C10.0725 108.659 9.50076 108.627 9.50392 108.596H9.50708Z" fill="#263238"/>
    <path d="M67.1582 50.927L55.9897 107.798L54.5273 115.243L129.087 114.881C132.432 114.865 135.398 111.921 136.475 107.551L149.696 53.8582C150.514 50.5391 148.72 47.0887 146.181 47.0887L70.7178 47.1669C69.0502 47.1669 67.5941 48.7091 67.1582 50.927Z" fill="#41A58D"/>
    <g opacity="0.5">
      <path d="M67.1582 50.927L55.9897 107.798L54.5273 115.243L129.087 114.881C132.432 114.865 135.398 111.921 136.475 107.551L149.696 53.8582C150.514 50.5391 148.72 47.0887 146.181 47.0887L70.7178 47.1669C69.0502 47.1669 67.5941 48.7091 67.1582 50.927Z" fill="black"/>
    </g>
    <path d="M121.936 103.944L114.043 40.9386C113.721 38.3578 111.642 36.4308 109.191 36.4402L91.8796 36.4965C90.5973 36.4997 89.3686 37.0408 88.4589 37.9981L80.2405 46.6508L32.0954 46.901C29.1548 46.9167 26.8933 49.6726 27.2818 52.7727L34.6127 111.005C34.938 113.582 37.01 115.506 39.4579 115.5L123.364 115.337C132.71 115.528 133.6 112.797 133.6 112.797C122.89 115.147 121.936 103.954 121.936 103.947V103.944Z" fill="#41A58D"/>
    <g opacity="0.5">
      <path d="M85.7565 91.3344L82.9265 94.3469L61.1328 74.9268L63.9628 71.9175L85.7565 91.3344Z" fill="white"/>
      <path d="M81.7381 71.2512L84.8682 74.0353L65.1465 95.0132L62.0195 92.2259L81.7381 71.2512Z" fill="white"/>
    </g>
    <path d="M127.477 30.0962C127.275 30.0117 127.13 29.8146 127.12 29.5831L126.994 26.6802C126.985 26.4987 127.064 26.3204 127.206 26.2047C127.348 26.0889 127.537 26.0451 127.717 26.0858C128.188 26.1953 128.709 26.0952 129.142 25.8074C129.543 25.5415 129.812 25.1536 129.878 24.7375C129.947 24.3246 129.818 23.8647 129.524 23.48C129.208 23.067 128.744 22.7918 128.28 22.7386C127.329 22.6291 126.302 23.3517 126.037 24.3152C125.952 24.6249 125.63 24.8095 125.314 24.725C124.995 24.6374 124.815 24.3183 124.9 24.0086C125.314 22.4946 126.893 21.406 128.415 21.578C129.205 21.6687 129.954 22.1035 130.465 22.7761C130.952 23.4143 131.163 24.1963 131.043 24.9252C130.923 25.6572 130.468 26.3329 129.796 26.7771C129.309 27.0993 128.753 27.2745 128.198 27.2933L128.295 29.5331C128.308 29.8553 128.059 30.1275 127.733 30.14C127.642 30.1431 127.556 30.1275 127.477 30.093V30.0962Z" fill="#41A58D"/>
    <path d="M128.34 31.2849C128.359 31.5477 128.156 31.776 127.891 31.7948C127.626 31.8136 127.395 31.6134 127.376 31.3506C127.357 31.0878 127.559 30.8595 127.825 30.8407C128.09 30.8219 128.321 31.0221 128.34 31.2849Z" fill="#41A58D"/>
    <path d="M117.324 26.0013C117.324 26.0013 117.337 25.9356 117.353 25.8105C117.369 25.676 117.388 25.4883 117.416 25.2505C117.429 25.0034 117.495 24.7031 117.568 24.3527C117.609 24.1776 117.631 23.9836 117.697 23.7865C117.76 23.5895 117.823 23.3767 117.893 23.1546C118.199 22.2756 118.67 21.2214 119.463 20.1734C120.249 19.1286 121.358 18.0932 122.779 17.3111C123.48 16.8982 124.279 16.6104 125.12 16.3539C125.972 16.1536 126.876 15.9816 127.82 16.0035C128.291 15.9785 128.768 16.0473 129.254 16.088C129.497 16.1099 129.734 16.1755 129.977 16.2162C130.221 16.26 130.467 16.3069 130.704 16.3914C131.68 16.6385 132.627 17.0952 133.528 17.6583C135.341 18.7876 136.866 20.6239 137.703 22.8512C138.123 23.9648 138.322 25.1848 138.322 26.4205C138.347 27.6561 138.104 28.9106 137.662 30.093L137.52 30.4497L137.501 30.4966L137.52 30.5404C138.313 32.3485 139.09 34.1191 139.841 35.8365L139.974 35.6863C138.344 35.0669 136.762 34.4632 135.243 33.8876L135.183 33.8657L135.135 33.9095C133.821 35.1702 132.255 36.021 130.669 36.4621C129.077 36.9063 127.473 36.9282 126.017 36.6717C124.554 36.4152 123.24 35.8615 122.141 35.1514C121.042 34.4413 120.158 33.5748 119.478 32.6957C118.803 31.8073 118.357 30.8939 118.022 30.0805C117.726 29.2484 117.545 28.5102 117.457 27.897C117.419 27.5905 117.388 27.3214 117.359 27.0837C117.353 26.8491 117.346 26.652 117.343 26.4862C117.337 26.3329 117.334 26.2109 117.331 26.1202C117.328 26.0389 117.324 25.9951 117.321 25.9951C117.321 25.9951 117.315 26.0357 117.315 26.1202C117.315 26.2109 117.315 26.3329 117.309 26.4862C117.309 26.652 117.309 26.8522 117.309 27.0868C117.334 27.3246 117.359 27.5998 117.391 27.9064C117.47 28.5227 117.64 29.2703 117.931 30.1149C118.259 30.9408 118.701 31.8667 119.377 32.7739C120.06 33.6686 120.947 34.5539 122.059 35.2828C123.168 36.0117 124.501 36.581 125.985 36.8469C127.466 37.1128 129.096 37.0971 130.716 36.6498C132.334 36.2025 133.932 35.3422 135.274 34.0596L135.17 34.0815C136.686 34.6603 138.268 35.264 139.898 35.8897L140.135 35.9804L140.031 35.7395C139.279 34.0221 138.502 32.2484 137.713 30.4403V30.531L137.858 30.165C138.313 28.9575 138.559 27.6718 138.534 26.4111C138.534 25.1504 138.328 23.9023 137.899 22.7636C137.043 20.4894 135.479 18.6187 133.632 17.4738C132.709 16.9013 131.746 16.4414 130.751 16.1912C130.508 16.1099 130.258 16.0629 130.012 16.016C129.766 15.9753 129.523 15.9096 129.276 15.8877C128.783 15.8471 128.3 15.7814 127.82 15.8095C126.86 15.7908 125.944 15.9691 125.079 16.1755C124.226 16.4383 123.417 16.7355 122.71 17.1578C121.273 17.9618 120.158 19.016 119.368 20.0827C118.575 21.1494 118.108 22.2224 117.814 23.1108C117.748 23.3361 117.684 23.5488 117.624 23.7521C117.561 23.9523 117.542 24.1494 117.504 24.3246C117.435 24.6812 117.378 24.9815 117.372 25.2318C117.353 25.4726 117.34 25.6572 117.331 25.7949C117.321 25.92 117.321 25.9857 117.324 25.9857V26.0013Z" fill="#263238"/>
  </g>
  <defs>
    <clipPath id="clip0_904_15057">
      <rect width="190" height="115" fill="white" transform="translate(0 0.5)"/>
    </clipPath>
  </defs>
</svg>